<?xml version="1.0"?>
<svg xmlns="http://www.w3.org/2000/svg" version="1.1" width="512" height="512" x="0" y="0"
    viewBox="0 0 24 24" style="enable-background:new 0 0 512 512" xml:space="preserve" class=""><g><path xmlns="http://www.w3.org/2000/svg" d="m17.25 2h-1.25v-1c0-.552-.447-1-1-1s-1 .448-1 1v1h-8v-1c0-.552-.447-1-1-1s-1 .448-1 1v1h-1.25c-1.517 0-2.75 1.233-2.75 2.75v11.25c0 1.654 1.346 3 3 3h5c.553 0 1-.448 1-1s-.447-1-1-1h-5c-.552 0-1-.449-1-1v-8h16c0 .552.447 1 1 1s1-.448 1-1v-3.25c0-1.517-1.233-2.75-2.75-2.75z" fill="#ffffff" data-original="#000000" style="" class=""/><g
    xmlns="http://www.w3.org/2000/svg"><path d="m17.5 11c-3.584 0-6.5 2.916-6.5 6.5s2.916 6.5 6.5 6.5 6.5-2.916 6.5-6.5-2.916-6.5-6.5-6.5zm2.5 7.5h-1.5v1.5c0 .552-.448 1-1 1s-1-.448-1-1v-1.5h-1.5c-.552 0-1-.448-1-1s.448-1 1-1h1.5v-1.5c0-.552.448-1 1-1s1 .448 1 1v1.5h1.5c.552 0 1 .448 1 1s-.448 1-1 1z" fill="#ffffff" data-original="#000000" style="" class=""/></g></g></svg>
