<?xml version="1.0"?>
<svg xmlns="http://www.w3.org/2000/svg" xmlns:xlink="http://www.w3.org/1999/xlink" xmlns:svgjs="http://svgjs.com/svgjs" version="1.1" width="512" height="512" x="0" y="0" viewBox="0 0 512 512" style="enable-background:new 0 0 512 512" xml:space="preserve" class=""><g>
<g xmlns="http://www.w3.org/2000/svg">
	<g>
		<g>
			<path d="M163.875,43.198c4.167-4.167,4.167-10.917,0-15.083C145.75,9.979,121.646,0,96,0C43.063,0,0,43.063,0,96     c0,25.656,9.979,49.76,28.125,67.885c2.083,2.083,4.813,3.125,7.542,3.125c2.729,0,5.458-1.042,7.542-3.125L163.875,43.198z" fill="#ffffff" data-original="#000000" style="" class=""/>
			<path d="M426.125,163.885c2.083,2.083,4.813,3.125,7.542,3.125s5.458-1.042,7.542-3.125     c18.146-18.125,28.125-42.229,28.125-67.885c0-52.938-43.063-96-96-96c-25.646,0-49.75,9.979-67.875,28.115     c-4.167,4.167-4.167,10.917,0,15.083L426.125,163.885z" fill="#ffffff" data-original="#000000" style="" class=""/>
			<path d="M294.292,300.531c3.104,3.115,7.833,3.99,11.833,2.229c6.167-2.719,12.646-4.094,19.208-4.094l7.104,0.26     c0.167,0.031,2.208,0.354,2.375,0.385c4.375,0.573,8.563-1.563,10.688-5.396c5.708-10.229,16.375-16.583,27.833-16.583     c11.396,0,21.688,5.99,27.542,16.031c1.896,3.281,5.417,5.302,9.208,5.302h2.792c5.146,0,9.563-3.688,10.5-8.75     c2.208-12.188,3.292-23.281,3.292-33.917c0-105.865-86.125-192-192-192s-192,86.135-192,192     c0,47.586,17.501,91.094,46.276,124.676l-24.422,74.678c-1.521,4.688,0.354,9.823,4.563,12.406     c1.729,1.052,3.667,1.573,5.583,1.573c2.75,0,5.479-1.063,7.542-3.125l48.827-48.827C160.965,436.669,196.487,448,234.667,448     c10.625,0,21.708-1.073,33.896-3.281c5.083-0.927,8.771-5.344,8.771-10.5v-87.552c0-6.604,1.375-13.063,4.083-19.198     c1.792-4.031,0.917-8.74-2.208-11.854l-39.341-39.333c-1.707,0.441-3.357,1.052-5.201,1.052     c-11.771,0-21.333-9.573-21.333-21.333c0-7.794,4.408-14.332,10.667-18.056v-99.277c0-5.896,4.771-10.667,10.667-10.667     c5.896,0,10.667,4.771,10.667,10.667v99.277C251.592,241.668,256,248.206,256,256c0,1.842-0.611,3.491-1.052,5.197     L294.292,300.531z" fill="#ffffff" data-original="#000000" style="" class=""/>
			<path d="M485.333,320h-16v-10.667c0-5.896-4.771-10.667-10.667-10.667S448,303.438,448,309.333v32     c0,5.885-4.792,10.667-10.667,10.667s-10.667-4.781-10.667-10.667v-10.667c0-5.896-4.771-10.667-10.667-10.667h-32v-10.667     c0-5.896-4.771-10.667-10.667-10.667c-5.896,0-10.667,4.771-10.667,10.667v32c0,5.885-4.792,10.667-10.667,10.667     s-10.667-4.781-10.667-10.667v-10.667c0-5.896-4.771-10.667-10.667-10.667h-5.333c-14.708,0-26.667,11.958-26.667,26.667v138.667     c0,14.708,11.958,26.667,26.667,26.667H448c2.833,0,5.542-1.125,7.542-3.125l53.333-53.333c2-2,3.125-4.708,3.125-7.542V346.667     C512,331.958,500.042,320,485.333,320z M490.667,426.667h-39.042c-13.771,0-24.958,11.198-24.958,24.958v39.042H325.333     c-2.938,0-5.333-2.396-5.333-5.333V384h170.667V426.667z" fill="#ffffff" data-original="#000000" style="" class=""/>
		</g>
	</g>
</g>
<g xmlns="http://www.w3.org/2000/svg">
</g>
<g xmlns="http://www.w3.org/2000/svg">
</g>
<g xmlns="http://www.w3.org/2000/svg">
</g>
<g xmlns="http://www.w3.org/2000/svg">
</g>
<g xmlns="http://www.w3.org/2000/svg">
</g>
<g xmlns="http://www.w3.org/2000/svg">
</g>
<g xmlns="http://www.w3.org/2000/svg">
</g>
<g xmlns="http://www.w3.org/2000/svg">
</g>
<g xmlns="http://www.w3.org/2000/svg">
</g>
<g xmlns="http://www.w3.org/2000/svg">
</g>
<g xmlns="http://www.w3.org/2000/svg">
</g>
<g xmlns="http://www.w3.org/2000/svg">
</g>
<g xmlns="http://www.w3.org/2000/svg">
</g>
<g xmlns="http://www.w3.org/2000/svg">
</g>
<g xmlns="http://www.w3.org/2000/svg">
</g>
</g></svg>
